# xmcd
#
# Track frame offsets:
#	187
#	13985
#	28037
#	41902
#	55947
#	70270
#	82012
#	94767
#	109502
#	125212
#	139260
#	150430
#
# Disc length: 2177 seconds
#
# Revision: 1
# Processed by: cddbd v1.5.2PL0 Copyright (c) Steve Scherf et al.
# Submitted via: audiograbber 1.83.01
#
DISCID=a7087f0c
DTITLE=Los Invasores de Nuevo Leon - Es Demasiado Tarde
DYEAR=1991
DGENRE=Norteñas
TTITLE0=Es Demasiado Tarde
TTITLE1=Lo Callare
TTITLE2=Tristeza
TTITLE3=Distancia Maldita
TTITLE4=Gracias Porque Volviste
TTITLE5=El Patito
TTITLE6=Te Llevare
TTITLE7=Disculpenme
TTITLE8=Reproches del Viento
TTITLE9=Y Despues Que
TTITLE10=Aunque Vivas con El
TTITLE11=Vete con El
EXTD=
EXTT0=
EXTT1=
EXTT2=
EXTT3=
EXTT4=
EXTT5=
EXTT6=
EXTT7=
EXTT8=
EXTT9=
EXTT10=
EXTT11=
PLAYORDER=
